<?xml version="1.0" encoding="UTF-8" standalone="no"?>
<!DOCTYPE svg PUBLIC "-//W3C//DTD SVG 1.1//EN"
 "http://www.w3.org/Graphics/SVG/1.1/DTD/svg11.dtd">
<!-- Generated by graphviz version 2.42.4 (0)
 -->
<!-- Title: Compiled schema nodes flags Pages: 1 -->
<svg width="295pt" height="64pt"
 viewBox="0.00 0.00 295.00 64.00" xmlns="http://www.w3.org/2000/svg" xmlns:xlink="http://www.w3.org/1999/xlink">
<g id="graph0" class="graph" transform="scale(1 1) rotate(0) translate(4 60)">
<title>Compiled schema nodes flags</title>
<!-- Node2 -->
<g id="Node000002" class="node">
<title>Node2</title>
<g id="a_Node000002"><a xlink:href="group__schematree.html" target="_top" xlink:title=" ">
<polygon fill="white" stroke="#666666" points="96.5,-56 17.5,-56 17.5,-37 96.5,-37 96.5,-56"/>
<text text-anchor="middle" x="57" y="-44" font-family="Helvetica,sans-Serif" font-size="10.00">Schema Tree</text>
</a>
</g>
</g>
<!-- Node1 -->
<g id="Node000001" class="node">
<title>Node1</title>
<g id="a_Node000001"><a xlink:title=" ">
<polygon fill="#999999" stroke="#666666" points="287,-42.5 150,-42.5 150,-12.5 287,-12.5 287,-42.5"/>
<text text-anchor="start" x="158" y="-30.5" font-family="Helvetica,sans-Serif" font-size="10.00">Compiled schema nodes</text>
<text text-anchor="middle" x="218.5" y="-19.5" font-family="Helvetica,sans-Serif" font-size="10.00"> flags</text>
</a>
</g>
</g>
<!-- Node2&#45;&gt;Node1 -->
<g id="edge1" class="edge">
<title>Node2&#45;&gt;Node1</title>
<path fill="none" stroke="black" d="M106.73,-40.69C120.38,-39.07 135.46,-37.27 149.98,-35.54"/>
<polygon fill="black" stroke="black" points="106.13,-37.24 96.61,-41.9 106.95,-44.19 106.13,-37.24"/>
</g>
<!-- Node3 -->
<g id="Node000003" class="node">
<title>Node3</title>
<g id="a_Node000003"><a xlink:href="group__snodeflags.html" target="_top" xlink:title=" ">
<polygon fill="white" stroke="#666666" points="114,-19 0,-19 0,0 114,0 114,-19"/>
<text text-anchor="middle" x="57" y="-7" font-family="Helvetica,sans-Serif" font-size="10.00">Schema nodes flags</text>
</a>
</g>
</g>
<!-- Node3&#45;&gt;Node1 -->
<g id="edge2" class="edge">
<title>Node3&#45;&gt;Node1</title>
<path fill="none" stroke="black" d="M124.34,-16.99C132.73,-17.93 141.33,-18.9 149.74,-19.85"/>
<polygon fill="black" stroke="black" points="124.56,-13.49 114.23,-15.85 123.78,-20.45 124.56,-13.49"/>
</g>
</g>
</svg>
