<?xml version="1.0" encoding="UTF-8" standalone="no"?>
<!DOCTYPE svg PUBLIC "-//W3C//DTD SVG 1.1//EN"
 "http://www.w3.org/Graphics/SVG/1.1/DTD/svg11.dtd">
<!-- Generated by graphviz version 2.42.4 (0)
 -->
<!-- Title: Plugins: Extensions compilation support Pages: 1 -->
<svg width="432pt" height="38pt"
 viewBox="0.00 0.00 432.00 38.00" xmlns="http://www.w3.org/2000/svg" xmlns:xlink="http://www.w3.org/1999/xlink">
<g id="graph0" class="graph" transform="scale(1 1) rotate(0) translate(4 34)">
<title>Plugins: Extensions compilation support</title>
<!-- Node2 -->
<g id="Node000002" class="node">
<title>Node2</title>
<g id="a_Node000002"><a xlink:href="group__plugins_extensions.html" target="_top" xlink:title=" ">
<polygon fill="white" stroke="#666666" points="111,-24.5 0,-24.5 0,-5.5 111,-5.5 111,-24.5"/>
<text text-anchor="middle" x="55.5" y="-12.5" font-family="Helvetica,sans-Serif" font-size="10.00">Plugins: Extensions</text>
</a>
</g>
</g>
<!-- Node1 -->
<g id="Node000001" class="node">
<title>Node1</title>
<g id="a_Node000001"><a xlink:title=" ">
<polygon fill="#999999" stroke="#666666" points="264,-30 147,-30 147,0 264,0 264,-30"/>
<text text-anchor="start" x="155" y="-18" font-family="Helvetica,sans-Serif" font-size="10.00">Plugins: Extensions</text>
<text text-anchor="middle" x="205.5" y="-7" font-family="Helvetica,sans-Serif" font-size="10.00"> compilation support</text>
</a>
</g>
</g>
<!-- Node2&#45;&gt;Node1 -->
<g id="edge1" class="edge">
<title>Node2&#45;&gt;Node1</title>
<path fill="none" stroke="black" d="M121.33,-15C129.72,-15 138.28,-15 146.56,-15"/>
<polygon fill="black" stroke="black" points="121.19,-11.5 111.19,-15 121.19,-18.5 121.19,-11.5"/>
</g>
<!-- Node3 -->
<g id="Node000003" class="node">
<title>Node3</title>
<g id="a_Node000003"><a xlink:href="group__scflags.html" target="_top" xlink:title=" ">
<polygon fill="white" stroke="#666666" points="424,-24.5 300,-24.5 300,-5.5 424,-5.5 424,-24.5"/>
<text text-anchor="middle" x="362" y="-12.5" font-family="Helvetica,sans-Serif" font-size="10.00">Schema compile flags</text>
</a>
</g>
</g>
<!-- Node1&#45;&gt;Node3 -->
<g id="edge2" class="edge">
<title>Node1&#45;&gt;Node3</title>
<path fill="none" stroke="black" d="M274.28,-15C282.77,-15 291.42,-15 299.8,-15"/>
<polygon fill="black" stroke="black" points="274.03,-11.5 264.03,-15 274.03,-18.5 274.03,-11.5"/>
</g>
</g>
</svg>
