<?xml version="1.0" encoding="UTF-8" standalone="no"?>
<!DOCTYPE svg PUBLIC "-//W3C//DTD SVG 1.1//EN"
 "http://www.w3.org/Graphics/SVG/1.1/DTD/svg11.dtd">
<!-- Generated by graphviz version 2.42.4 (0)
 -->
<!-- Title: src/parser_data.h Pages: 1 -->
<!--zoomable 247 -->

<svg id="main" version="1.1" xmlns="http://www.w3.org/2000/svg" xmlns:xlink="http://www.w3.org/1999/xlink" xml:space="preserve" onload="init(evt)">
<style type="text/css"><![CDATA[
.node, .edge {opacity: 0.7;}
.node.selected, .edge.selected {opacity: 1;}
.edge:hover path { stroke: red; }
.edge:hover polygon { stroke: red; fill: red; }
]]></style>

<defs>
  <circle id="rim" cx="0" cy="0" r="7"/>
  <circle id="rim2" cx="0" cy="0" r="3.5"/>
  <g id="zoomPlus">
    <use xlink:href="#rim" fill="#404040"><set attributeName="fill" to="#808080" begin="zoomplus.mouseover" end="zoomplus.mouseout"/></use>
    <path d="M-4,0h8M0,-4v8" fill="none" stroke="white" stroke-width="1.5" pointer-events="none"/>
  </g>
  <g id="zoomMin">
    <use xlink:href="#rim" fill="#404040"><set attributeName="fill" to="#808080" begin="zoomminus.mouseover" end="zoomminus.mouseout"/></use>
    <path d="M-4,0h8" fill="none" stroke="white" stroke-width="1.5" pointer-events="none"/>
  </g>
  <g id="arrowUp" transform="translate(30 24)">
    <use xlink:href="#rim"/>
    <path pointer-events="none" fill="none" stroke="white" stroke-width="1.5" d="M0,-3.0v7 M-2.5,-0.5L0,-3.0L2.5,-0.5"/>
  </g>
  <g id="arrowRight" transform="rotate(90) translate(36 -43)">
    <use xlink:href="#rim"/>
    <path pointer-events="none" fill="none" stroke="white" stroke-width="1.5" d="M0,-3.0v7 M-2.5,-0.5L0,-3.0L2.5,-0.5"/>
  </g>
  <g id="arrowDown" transform="rotate(180) translate(-30 -48)">
    <use xlink:href="#rim"/>
    <path pointer-events="none" fill="none" stroke="white" stroke-width="1.5" d="M0,-3.0v7 M-2.5,-0.5L0,-3.0L2.5,-0.5"/>
  </g>
  <g id="arrowLeft" transform="rotate(270) translate(-36 17)">
    <use xlink:href="#rim"/>
    <path pointer-events="none" fill="none" stroke="white" stroke-width="1.5" d="M0,-3.0v7 M-2.5,-0.5L0,-3.0L2.5,-0.5"/>
  </g>
  <g id="resetDef">
    <use xlink:href="#rim2" fill="#404040"><set attributeName="fill" to="#808080" begin="reset.mouseover" end="reset.mouseout"/></use>
  </g>
</defs>
<script type="application/ecmascript">
var viewWidth = 607;
var viewHeight = 247;
var sectionId = 'dynsection-0';
</script>
<script type="application/ecmascript" xlink:href="svg.min.js"/>
<svg id="graph" class="graph">
<g id="viewport">
<title>src/parser_data.h</title>
<!-- Node1 -->
<g id="Node000001" class="node">
<title>Node1</title>
<g id="a_Node000001"><a xlink:title="Data parsers for libyang.">
<polygon fill="#999999" stroke="#666666" points="352,-239 251,-239 251,-220 352,-220 352,-239"/>
<text text-anchor="middle" x="301.5" y="-227" font-family="Helvetica,sans-Serif" font-size="10.00">src/parser_data.h</text>
</a>
</g>
</g>
<!-- Node2 -->
<g id="Node000002" class="node">
<title>Node2</title>
<g id="a_Node000002"><a xlink:href="tree__data_8h.html" target="_top" xlink:title="libyang representation of YANG data trees.">
<polygon fill="white" stroke="#666666" points="337.5,-184 265.5,-184 265.5,-165 337.5,-165 337.5,-184"/>
<text text-anchor="middle" x="301.5" y="-172" font-family="Helvetica,sans-Serif" font-size="10.00">tree_data.h</text>
</a>
</g>
</g>
<!-- Node1&#45;&gt;Node2 -->
<g id="edge1_Node000001_Node000002" class="edge">
<title>Node1&#45;&gt;Node2</title>
<g id="a_edge1_Node000001_Node000002"><a xlink:title=" ">
<path fill="none" stroke="#63b8ff" d="M301.5,-219.75C301.5,-212.8 301.5,-202.85 301.5,-194.13"/>
<polygon fill="#63b8ff" stroke="#63b8ff" points="305,-194.09 301.5,-184.09 298,-194.09 305,-194.09"/>
</a>
</g>
</g>
<!-- Node3 -->
<g id="Node000003" class="node">
<title>Node3</title>
<g id="a_Node000003"><a xlink:title=" ">
<polygon fill="#e0e0e0" stroke="#999999" points="69,-129 0,-129 0,-110 69,-110 69,-129"/>
<text text-anchor="middle" x="34.5" y="-117" font-family="Helvetica,sans-Serif" font-size="10.00">arpa/inet.h</text>
</a>
</g>
</g>
<!-- Node2&#45;&gt;Node3 -->
<g id="edge2_Node000002_Node000003" class="edge">
<title>Node2&#45;&gt;Node3</title>
<g id="a_edge2_Node000002_Node000003"><a xlink:title=" ">
<path fill="none" stroke="#63b8ff" d="M265.49,-166.35C217.18,-156.76 131.43,-139.74 79.09,-129.35"/>
<polygon fill="#63b8ff" stroke="#63b8ff" points="79.58,-125.88 69.09,-127.37 78.22,-132.75 79.58,-125.88"/>
</a>
</g>
</g>
<!-- Node4 -->
<g id="Node000004" class="node">
<title>Node4</title>
<g id="a_Node000004"><a xlink:title=" ">
<polygon fill="#e0e0e0" stroke="#999999" points="179,-74 126,-74 126,-55 179,-55 179,-74"/>
<text text-anchor="middle" x="152.5" y="-62" font-family="Helvetica,sans-Serif" font-size="10.00">pcre2.h</text>
</a>
</g>
</g>
<!-- Node2&#45;&gt;Node4 -->
<g id="edge3_Node000002_Node000004" class="edge">
<title>Node2&#45;&gt;Node4</title>
<g id="a_edge3_Node000002_Node000004"><a xlink:title=" ">
<path fill="none" stroke="#63b8ff" d="M287.72,-164.97C273.82,-156.25 251.84,-142.16 233.5,-129 211.45,-113.18 187.05,-93.78 170.86,-80.62"/>
<polygon fill="#63b8ff" stroke="#63b8ff" points="172.73,-77.63 162.77,-74.01 168.3,-83.05 172.73,-77.63"/>
</a>
</g>
</g>
<!-- Node5 -->
<g id="Node000005" class="node">
<title>Node5</title>
<g id="a_Node000005"><a xlink:title=" ">
<polygon fill="#e0e0e0" stroke="#999999" points="532.5,-129 476.5,-129 476.5,-110 532.5,-110 532.5,-129"/>
<text text-anchor="middle" x="504.5" y="-117" font-family="Helvetica,sans-Serif" font-size="10.00">stddef.h</text>
</a>
</g>
</g>
<!-- Node2&#45;&gt;Node5 -->
<g id="edge4_Node000002_Node000005" class="edge">
<title>Node2&#45;&gt;Node5</title>
<g id="a_edge4_Node000002_Node000005"><a xlink:title=" ">
<path fill="none" stroke="#63b8ff" d="M334.12,-164.98C370.23,-155.56 428.37,-140.38 466.51,-130.42"/>
<polygon fill="#63b8ff" stroke="#63b8ff" points="467.43,-133.8 476.22,-127.88 465.66,-127.02 467.43,-133.8"/>
</a>
</g>
</g>
<!-- Node6 -->
<g id="Node000006" class="node">
<title>Node6</title>
<g id="a_Node000006"><a xlink:title=" ">
<polygon fill="#e0e0e0" stroke="#999999" points="244,-19 191,-19 191,0 244,0 244,-19"/>
<text text-anchor="middle" x="217.5" y="-7" font-family="Helvetica,sans-Serif" font-size="10.00">stdint.h</text>
</a>
</g>
</g>
<!-- Node2&#45;&gt;Node6 -->
<g id="edge5_Node000002_Node000006" class="edge">
<title>Node2&#45;&gt;Node6</title>
<g id="a_edge5_Node000002_Node000006"><a xlink:title=" ">
<path fill="none" stroke="#63b8ff" d="M265.46,-166.28C220.91,-155.17 147.22,-129.1 116.5,-74 100.02,-44.45 145.71,-26.75 180.93,-17.82"/>
<polygon fill="#63b8ff" stroke="#63b8ff" points="182.06,-21.14 190.98,-15.42 180.44,-14.33 182.06,-21.14"/>
</a>
</g>
</g>
<!-- Node7 -->
<g id="Node000007" class="node">
<title>Node7</title>
<g id="a_Node000007"><a xlink:title=" ">
<polygon fill="#e0e0e0" stroke="#999999" points="598.5,-129 550.5,-129 550.5,-110 598.5,-110 598.5,-129"/>
<text text-anchor="middle" x="574.5" y="-117" font-family="Helvetica,sans-Serif" font-size="10.00">time.h</text>
</a>
</g>
</g>
<!-- Node2&#45;&gt;Node7 -->
<g id="edge6_Node000002_Node000007" class="edge">
<title>Node2&#45;&gt;Node7</title>
<g id="a_edge6_Node000002_Node000007"><a xlink:title=" ">
<path fill="none" stroke="#63b8ff" d="M337.84,-167.56C383.06,-160 462.83,-146.08 540.45,-129.11"/>
<polygon fill="#63b8ff" stroke="#63b8ff" points="541.38,-132.49 550.4,-126.91 539.88,-125.65 541.38,-132.49"/>
</a>
</g>
</g>
<!-- Node8 -->
<g id="Node000008" class="node">
<title>Node8</title>
<g id="a_Node000008"><a xlink:href="log_8h.html" target="_top" xlink:title="Logger manipulation routines and error definitions.">
<polygon fill="white" stroke="#666666" points="238,-74 197,-74 197,-55 238,-55 238,-74"/>
<text text-anchor="middle" x="217.5" y="-62" font-family="Helvetica,sans-Serif" font-size="10.00">log.h</text>
</a>
</g>
</g>
<!-- Node2&#45;&gt;Node8 -->
<g id="edge7_Node000002_Node000008" class="edge">
<title>Node2&#45;&gt;Node8</title>
<g id="a_edge7_Node000002_Node000008"><a xlink:title=" ">
<path fill="none" stroke="#63b8ff" d="M288.39,-164.88C276.76,-156.72 259.89,-143.58 248.5,-129 237.77,-115.27 229.41,-97.23 224.08,-83.89"/>
<polygon fill="#63b8ff" stroke="#63b8ff" points="227.29,-82.48 220.48,-74.37 220.75,-84.96 227.29,-82.48"/>
</a>
</g>
</g>
<!-- Node9 -->
<g id="Node000009" class="node">
<title>Node9</title>
<g id="a_Node000009"><a xlink:title=" ">
<polygon fill="#e0e0e0" stroke="#999999" points="339,-19 270,-19 270,0 339,0 339,-19"/>
<text text-anchor="middle" x="304.5" y="-7" font-family="Helvetica,sans-Serif" font-size="10.00">ly_config.h</text>
</a>
</g>
</g>
<!-- Node2&#45;&gt;Node9 -->
<g id="edge10_Node000002_Node000009" class="edge">
<title>Node2&#45;&gt;Node9</title>
<g id="a_edge10_Node000002_Node000009"><a xlink:title=" ">
<path fill="none" stroke="#63b8ff" d="M314.88,-164.81C336.77,-149.59 379.05,-115.74 391.5,-74 393.91,-65.91 395.91,-62.2 391.5,-55 381.95,-39.39 365.01,-29.04 348.6,-22.28"/>
<polygon fill="#63b8ff" stroke="#63b8ff" points="349.65,-18.94 339.06,-18.71 347.19,-25.49 349.65,-18.94"/>
</a>
</g>
</g>
<!-- Node10 -->
<g id="Node000010" class="node">
<title>Node10</title>
<g id="a_Node000010"><a xlink:href="tree_8h.html" target="_top" xlink:title="libyang generic macros and functions to work with YANG schema or data trees.">
<polygon fill="white" stroke="#666666" points="484,-74 439,-74 439,-55 484,-55 484,-74"/>
<text text-anchor="middle" x="461.5" y="-62" font-family="Helvetica,sans-Serif" font-size="10.00">tree.h</text>
</a>
</g>
</g>
<!-- Node2&#45;&gt;Node10 -->
<g id="edge11_Node000002_Node000010" class="edge">
<title>Node2&#45;&gt;Node10</title>
<g id="a_edge11_Node000002_Node000010"><a xlink:title=" ">
<path fill="none" stroke="#63b8ff" d="M337.66,-167.3C364.11,-161.25 399.56,-149.8 424.5,-129 438.87,-117.02 448.91,-97.93 454.88,-83.81"/>
<polygon fill="#63b8ff" stroke="#63b8ff" points="458.26,-84.76 458.64,-74.17 451.74,-82.21 458.26,-84.76"/>
</a>
</g>
</g>
<!-- Node12 -->
<g id="Node000012" class="node">
<title>Node12</title>
<g id="a_Node000012"><a xlink:href="tree__schema_8h.html" target="_top" xlink:title="libyang representation of YANG schema trees.">
<polygon fill="white" stroke="#666666" points="346,-129 257,-129 257,-110 346,-110 346,-129"/>
<text text-anchor="middle" x="301.5" y="-117" font-family="Helvetica,sans-Serif" font-size="10.00">tree_schema.h</text>
</a>
</g>
</g>
<!-- Node2&#45;&gt;Node12 -->
<g id="edge13_Node000002_Node000012" class="edge">
<title>Node2&#45;&gt;Node12</title>
<g id="a_edge13_Node000002_Node000012"><a xlink:title=" ">
<path fill="none" stroke="#63b8ff" d="M301.5,-164.75C301.5,-157.8 301.5,-147.85 301.5,-139.13"/>
<polygon fill="#63b8ff" stroke="#63b8ff" points="305,-139.09 301.5,-129.09 298,-139.09 305,-139.09"/>
</a>
</g>
</g>
<!-- Node8&#45;&gt;Node6 -->
<g id="edge8_Node000008_Node000006" class="edge">
<title>Node8&#45;&gt;Node6</title>
<g id="a_edge8_Node000008_Node000006"><a xlink:title=" ">
<path fill="none" stroke="#63b8ff" d="M217.5,-54.75C217.5,-47.8 217.5,-37.85 217.5,-29.13"/>
<polygon fill="#63b8ff" stroke="#63b8ff" points="221,-29.09 217.5,-19.09 214,-29.09 221,-29.09"/>
</a>
</g>
</g>
<!-- Node8&#45;&gt;Node9 -->
<g id="edge9_Node000008_Node000009" class="edge">
<title>Node8&#45;&gt;Node9</title>
<g id="a_edge9_Node000008_Node000009"><a xlink:title=" ">
<path fill="none" stroke="#63b8ff" d="M231.48,-54.98C244.97,-46.77 265.63,-34.18 281.54,-24.49"/>
<polygon fill="#63b8ff" stroke="#63b8ff" points="283.55,-27.36 290.27,-19.17 279.91,-21.38 283.55,-27.36"/>
</a>
</g>
</g>
<!-- Node11 -->
<g id="Node000011" class="node">
<title>Node11</title>
<g id="a_Node000011"><a xlink:title=" ">
<polygon fill="#e0e0e0" stroke="#999999" points="494,-19 429,-19 429,0 494,0 494,-19"/>
<text text-anchor="middle" x="461.5" y="-7" font-family="Helvetica,sans-Serif" font-size="10.00">inttypes.h</text>
</a>
</g>
</g>
<!-- Node10&#45;&gt;Node11 -->
<g id="edge12_Node000010_Node000011" class="edge">
<title>Node10&#45;&gt;Node11</title>
<g id="a_edge12_Node000010_Node000011"><a xlink:title=" ">
<path fill="none" stroke="#63b8ff" d="M461.5,-54.75C461.5,-47.8 461.5,-37.85 461.5,-29.13"/>
<polygon fill="#63b8ff" stroke="#63b8ff" points="465,-29.09 461.5,-19.09 458,-29.09 465,-29.09"/>
</a>
</g>
</g>
<!-- Node12&#45;&gt;Node4 -->
<g id="edge14_Node000012_Node000004" class="edge">
<title>Node12&#45;&gt;Node4</title>
<g id="a_edge14_Node000012_Node000004"><a xlink:title=" ">
<path fill="none" stroke="#63b8ff" d="M277.56,-109.98C252.94,-101.23 214.38,-87.51 186.58,-77.62"/>
<polygon fill="#63b8ff" stroke="#63b8ff" points="187.47,-74.22 176.88,-74.17 185.12,-80.82 187.47,-74.22"/>
</a>
</g>
</g>
<!-- Node12&#45;&gt;Node6 -->
<g id="edge15_Node000012_Node000006" class="edge">
<title>Node12&#45;&gt;Node6</title>
<g id="a_edge15_Node000012_Node000006"><a xlink:title=" ">
<path fill="none" stroke="#63b8ff" d="M294.63,-109.66C280.59,-91.61 248.44,-50.28 230.39,-27.08"/>
<polygon fill="#63b8ff" stroke="#63b8ff" points="233.14,-24.9 224.23,-19.16 227.61,-29.2 233.14,-24.9"/>
</a>
</g>
</g>
<!-- Node12&#45;&gt;Node8 -->
<g id="edge17_Node000012_Node000008" class="edge">
<title>Node12&#45;&gt;Node8</title>
<g id="a_edge17_Node000012_Node000008"><a xlink:title=" ">
<path fill="none" stroke="#63b8ff" d="M288,-109.98C275.1,-101.84 255.4,-89.41 240.1,-79.76"/>
<polygon fill="#63b8ff" stroke="#63b8ff" points="241.57,-76.55 231.24,-74.17 237.83,-82.47 241.57,-76.55"/>
</a>
</g>
</g>
<!-- Node12&#45;&gt;Node9 -->
<g id="edge18_Node000012_Node000009" class="edge">
<title>Node12&#45;&gt;Node9</title>
<g id="a_edge18_Node000012_Node000009"><a xlink:title=" ">
<path fill="none" stroke="#63b8ff" d="M301.75,-109.66C302.23,-92.17 303.32,-52.8 303.98,-29.27"/>
<polygon fill="#63b8ff" stroke="#63b8ff" points="307.48,-29.25 304.26,-19.16 300.48,-29.06 307.48,-29.25"/>
</a>
</g>
</g>
<!-- Node12&#45;&gt;Node10 -->
<g id="edge19_Node000012_Node000010" class="edge">
<title>Node12&#45;&gt;Node10</title>
<g id="a_edge19_Node000012_Node000010"><a xlink:title=" ">
<path fill="none" stroke="#63b8ff" d="M327.21,-109.98C354.98,-100.78 399.3,-86.1 429.36,-76.15"/>
<polygon fill="#63b8ff" stroke="#63b8ff" points="430.57,-79.43 438.96,-72.97 428.37,-72.79 430.57,-79.43"/>
</a>
</g>
</g>
<!-- Node13 -->
<g id="Node000013" class="node">
<title>Node13</title>
<g id="a_Node000013"><a xlink:title=" ">
<polygon fill="#e0e0e0" stroke="#999999" points="382.5,-74 332.5,-74 332.5,-55 382.5,-55 382.5,-74"/>
<text text-anchor="middle" x="357.5" y="-62" font-family="Helvetica,sans-Serif" font-size="10.00">stdio.h</text>
</a>
</g>
</g>
<!-- Node12&#45;&gt;Node13 -->
<g id="edge16_Node000012_Node000013" class="edge">
<title>Node12&#45;&gt;Node13</title>
<g id="a_edge16_Node000012_Node000013"><a xlink:title=" ">
<path fill="none" stroke="#63b8ff" d="M310.5,-109.98C318.69,-102.23 331.01,-90.58 340.97,-81.14"/>
<polygon fill="#63b8ff" stroke="#63b8ff" points="343.48,-83.59 348.34,-74.17 338.67,-78.5 343.48,-83.59"/>
</a>
</g>
</g>
</g>
</svg>

<g id="navigator" transform="translate(0 0)" fill="#404254">
  <rect fill="#f2f5e9" fill-opacity="0.5" stroke="#606060" stroke-width=".5" x="0" y="0" width="60" height="60"/>
  <use id="zoomplus" xlink:href="#zoomPlus" x="17" y="9" onmousedown="handleZoom(evt,'in')"/>
  <use id="zoomminus" xlink:href="#zoomMin" x="42" y="9" onmousedown="handleZoom(evt,'out')"/>
  <use id="reset" xlink:href="#resetDef" x="30" y="36" onmousedown="handleReset()"/>
   <use id="arrowup" xlink:href="#arrowUp" x="0" y="0" onmousedown="handlePan(0,-1)"/>
  <use id="arrowright" xlink:href="#arrowRight" x="0" y="0" onmousedown="handlePan(1,0)"/>
  <use id="arrowdown" xlink:href="#arrowDown" x="0" y="0" onmousedown="handlePan(0,1)"/>
  <use id="arrowleft" xlink:href="#arrowLeft" x="0" y="0" onmousedown="handlePan(-1,0)"/>
</g>
<svg viewBox="0 0 15 15" width="100%" height="30px" preserveAspectRatio="xMaxYMin meet">
 <g id="arrow_out" transform="scale(0.3 0.3)">
  <a xlink:href="parser__data_8h__incl_org.svg" target="_base">
   <rect id="button" ry="5" rx="5" y="6" x="6" height="38" width="38"
        fill="#f2f5e9" fill-opacity="0.5" stroke="#606060" stroke-width="1.0"/>
   <path id="arrow"
     d="M 11.500037,31.436501 C 11.940474,20.09759 22.043105,11.32322 32.158766,21.979434 L 37.068811,17.246167 C 37.068811,17.246167 37.088388,32 37.088388,32 L 22.160133,31.978069 C 22.160133,31.978069 26.997745,27.140456 26.997745,27.140456 C 18.528582,18.264221 13.291696,25.230495 11.500037,31.436501 z"
     style="fill:#404040;"/>
  </a>
 </g>
</svg>

<style type='text/css'>
<![CDATA[
[data-mouse-over-selected='false'] { opacity: 0.7; }
[data-mouse-over-selected='true']  { opacity: 1.0; }
]]>
</style>
<script type="application/ecmascript"><![CDATA[
document.addEventListener('DOMContentLoaded', (event) => {
  highlightEdges();
  highlightAdjacentNodes();
});
]]></script>
</svg>
