<?xml version="1.0" encoding="UTF-8" standalone="no"?>
<!DOCTYPE svg PUBLIC "-//W3C//DTD SVG 1.1//EN"
 "http://www.w3.org/Graphics/SVG/1.1/DTD/svg11.dtd">
<!-- Generated by graphviz version 2.42.4 (0)
 -->
<!-- Title: src/plugins_types.h Pages: 1 -->
<svg width="3938pt" height="93pt"
 viewBox="0.00 0.00 3937.50 93.00" xmlns="http://www.w3.org/2000/svg" xmlns:xlink="http://www.w3.org/1999/xlink">
<g id="graph0" class="graph" transform="scale(1 1) rotate(0) translate(4 89)">
<title>src/plugins_types.h</title>
<!-- Node1 -->
<g id="Node000001" class="node">
<title>Node1</title>
<g id="a_Node000001"><a xlink:title="API for (user) types plugins.">
<polygon fill="#999999" stroke="#666666" points="2119,-85 2009,-85 2009,-66 2119,-66 2119,-85"/>
<text text-anchor="middle" x="2064" y="-73" font-family="Helvetica,sans-Serif" font-size="10.00">src/plugins_types.h</text>
</a>
</g>
</g>
<!-- Node2 -->
<g id="Node000002" class="node">
<title>Node2</title>
<g id="a_Node000002"><a xlink:href="binary_8c.html" target="_top" xlink:title="Built&#45;in binary type plugin.">
<polygon fill="white" stroke="#666666" points="142,-24.5 0,-24.5 0,-5.5 142,-5.5 142,-24.5"/>
<text text-anchor="middle" x="71" y="-12.5" font-family="Helvetica,sans-Serif" font-size="10.00">src/plugins_types/binary.c</text>
</a>
</g>
</g>
<!-- Node1&#45;&gt;Node2 -->
<g id="edge1_Node000001_Node000002" class="edge">
<title>Node1&#45;&gt;Node2</title>
<g id="a_edge1_Node000001_Node000002"><a xlink:title=" ">
<path fill="none" stroke="#63b8ff" d="M1998.56,-74.3C1706.58,-73.19 521.02,-66.47 151,-30 138.51,-28.77 125.04,-26.7 112.77,-24.53"/>
<polygon fill="#63b8ff" stroke="#63b8ff" points="1998.55,-77.8 2008.56,-74.33 1998.58,-70.8 1998.55,-77.8"/>
</a>
</g>
</g>
<!-- Node3 -->
<g id="Node000003" class="node">
<title>Node3</title>
<g id="a_Node000003"><a xlink:href="bits_8c.html" target="_top" xlink:title="Built&#45;in bits type plugin.">
<polygon fill="white" stroke="#666666" points="291.5,-24.5 160.5,-24.5 160.5,-5.5 291.5,-5.5 291.5,-24.5"/>
<text text-anchor="middle" x="226" y="-12.5" font-family="Helvetica,sans-Serif" font-size="10.00">src/plugins_types/bits.c</text>
</a>
</g>
</g>
<!-- Node1&#45;&gt;Node3 -->
<g id="edge2_Node000001_Node000003" class="edge">
<title>Node1&#45;&gt;Node3</title>
<g id="a_edge2_Node000001_Node000003"><a xlink:title=" ">
<path fill="none" stroke="#63b8ff" d="M1998.32,-74.24C1720.37,-72.94 639.58,-65.64 301,-30 289.28,-28.77 276.64,-26.7 265.14,-24.52"/>
<polygon fill="#63b8ff" stroke="#63b8ff" points="1998.63,-77.74 2008.64,-74.29 1998.66,-70.74 1998.63,-77.74"/>
</a>
</g>
</g>
<!-- Node4 -->
<g id="Node000004" class="node">
<title>Node4</title>
<g id="a_Node000004"><a xlink:href="boolean_8c.html" target="_top" xlink:title="Built&#45;in boolean type plugin.">
<polygon fill="white" stroke="#666666" points="462,-24.5 310,-24.5 310,-5.5 462,-5.5 462,-24.5"/>
<text text-anchor="middle" x="386" y="-12.5" font-family="Helvetica,sans-Serif" font-size="10.00">src/plugins_types/boolean.c</text>
</a>
</g>
</g>
<!-- Node1&#45;&gt;Node4 -->
<g id="edge3_Node000001_Node000004" class="edge">
<title>Node1&#45;&gt;Node4</title>
<g id="a_edge3_Node000001_Node000004"><a xlink:title=" ">
<path fill="none" stroke="#63b8ff" d="M1998.74,-73.86C1738.58,-71.11 774.88,-59.13 471,-30 457.9,-28.74 443.76,-26.7 430.85,-24.55"/>
<polygon fill="#63b8ff" stroke="#63b8ff" points="1998.75,-77.36 2008.79,-73.96 1998.82,-70.36 1998.75,-77.36"/>
</a>
</g>
</g>
<!-- Node5 -->
<g id="Node000005" class="node">
<title>Node5</title>
<g id="a_Node000005"><a xlink:href="date__and__time_8c.html" target="_top" xlink:title="ietf&#45;yang&#45;types date&#45;and&#45;time type plugin.">
<polygon fill="white" stroke="#666666" points="606,-30 480,-30 480,0 606,0 606,-30"/>
<text text-anchor="start" x="488" y="-18" font-family="Helvetica,sans-Serif" font-size="10.00">src/plugins_types/date</text>
<text text-anchor="middle" x="543" y="-7" font-family="Helvetica,sans-Serif" font-size="10.00">_and_time.c</text>
</a>
</g>
</g>
<!-- Node1&#45;&gt;Node5 -->
<g id="edge4_Node000001_Node000005" class="edge">
<title>Node1&#45;&gt;Node5</title>
<g id="a_edge4_Node000001_Node000005"><a xlink:title=" ">
<path fill="none" stroke="#63b8ff" d="M1998.63,-73.89C1753.45,-71.41 888.7,-60.61 615,-30 612.09,-29.67 609.12,-29.29 606.13,-28.87"/>
<polygon fill="#63b8ff" stroke="#63b8ff" points="1998.77,-77.4 2008.8,-74 1998.84,-70.4 1998.77,-77.4"/>
</a>
</g>
</g>
<!-- Node6 -->
<g id="Node000006" class="node">
<title>Node6</title>
<g id="a_Node000006"><a xlink:href="decimal64_8c.html" target="_top" xlink:title="Built&#45;in decimal64 type plugin.">
<polygon fill="white" stroke="#666666" points="788,-24.5 624,-24.5 624,-5.5 788,-5.5 788,-24.5"/>
<text text-anchor="middle" x="706" y="-12.5" font-family="Helvetica,sans-Serif" font-size="10.00">src/plugins_types/decimal64.c</text>
</a>
</g>
</g>
<!-- Node1&#45;&gt;Node6 -->
<g id="edge5_Node000001_Node000006" class="edge">
<title>Node1&#45;&gt;Node6</title>
<g id="a_edge5_Node000001_Node000006"><a xlink:title=" ">
<path fill="none" stroke="#63b8ff" d="M1998.66,-74.91C1811.2,-75.5 1255.63,-73.18 797,-30 783.15,-28.7 768.21,-26.66 754.51,-24.54"/>
<polygon fill="#63b8ff" stroke="#63b8ff" points="1998.91,-78.41 2008.9,-74.87 1998.89,-71.41 1998.91,-78.41"/>
</a>
</g>
</g>
<!-- Node7 -->
<g id="Node000007" class="node">
<title>Node7</title>
<g id="a_Node000007"><a xlink:href="empty_8c.html" target="_top" xlink:title="Built&#45;in empty type plugin.">
<polygon fill="white" stroke="#666666" points="949.5,-24.5 806.5,-24.5 806.5,-5.5 949.5,-5.5 949.5,-24.5"/>
<text text-anchor="middle" x="878" y="-12.5" font-family="Helvetica,sans-Serif" font-size="10.00">src/plugins_types/empty.c</text>
</a>
</g>
</g>
<!-- Node1&#45;&gt;Node7 -->
<g id="edge6_Node000001_Node000007" class="edge">
<title>Node1&#45;&gt;Node7</title>
<g id="a_edge6_Node000001_Node000007"><a xlink:title=" ">
<path fill="none" stroke="#63b8ff" d="M1998.75,-74.9C1827.54,-75.29 1351.46,-72.15 958,-30 945.8,-28.69 932.66,-26.66 920.61,-24.54"/>
<polygon fill="#63b8ff" stroke="#63b8ff" points="1998.87,-78.4 2008.86,-74.87 1998.85,-71.4 1998.87,-78.4"/>
</a>
</g>
</g>
<!-- Node8 -->
<g id="Node000008" class="node">
<title>Node8</title>
<g id="a_Node000008"><a xlink:href="enumeration_8c.html" target="_top" xlink:title="Built&#45;in enumeration type plugin.">
<polygon fill="white" stroke="#666666" points="1142.5,-24.5 967.5,-24.5 967.5,-5.5 1142.5,-5.5 1142.5,-24.5"/>
<text text-anchor="middle" x="1055" y="-12.5" font-family="Helvetica,sans-Serif" font-size="10.00">src/plugins_types/enumeration.c</text>
</a>
</g>
</g>
<!-- Node1&#45;&gt;Node8 -->
<g id="edge7_Node000001_Node000008" class="edge">
<title>Node1&#45;&gt;Node8</title>
<g id="a_edge7_Node000001_Node000008"><a xlink:title=" ">
<path fill="none" stroke="#63b8ff" d="M1998.46,-73.43C1848.37,-70.51 1468.28,-60.47 1152,-30 1137.52,-28.6 1121.89,-26.58 1107.5,-24.5"/>
<polygon fill="#63b8ff" stroke="#63b8ff" points="1998.8,-76.93 2008.87,-73.63 1998.94,-69.94 1998.8,-76.93"/>
</a>
</g>
</g>
<!-- Node9 -->
<g id="Node000009" class="node">
<title>Node9</title>
<g id="a_Node000009"><a xlink:href="hex__string_8c.html" target="_top" xlink:title="Built&#45;in hex&#45;string and associated types plugin.">
<polygon fill="white" stroke="#666666" points="1283,-30 1161,-30 1161,0 1283,0 1283,-30"/>
<text text-anchor="start" x="1169" y="-18" font-family="Helvetica,sans-Serif" font-size="10.00">src/plugins_types/hex</text>
<text text-anchor="middle" x="1222" y="-7" font-family="Helvetica,sans-Serif" font-size="10.00">_string.c</text>
</a>
</g>
</g>
<!-- Node1&#45;&gt;Node9 -->
<g id="edge8_Node000001_Node000009" class="edge">
<title>Node1&#45;&gt;Node9</title>
<g id="a_edge8_Node000001_Node000009"><a xlink:title=" ">
<path fill="none" stroke="#63b8ff" d="M1998.96,-73.81C1865.76,-71.74 1552.53,-63.4 1292,-30 1289.05,-29.62 1286.04,-29.19 1283,-28.72"/>
<polygon fill="#63b8ff" stroke="#63b8ff" points="1998.95,-77.31 2009,-73.96 1999.05,-70.32 1998.95,-77.31"/>
</a>
</g>
</g>
<!-- Node10 -->
<g id="Node000010" class="node">
<title>Node10</title>
<g id="a_Node000010"><a xlink:href="identityref_8c.html" target="_top" xlink:title="Built&#45;in identityref type plugin.">
<polygon fill="white" stroke="#666666" points="1464.5,-24.5 1301.5,-24.5 1301.5,-5.5 1464.5,-5.5 1464.5,-24.5"/>
<text text-anchor="middle" x="1383" y="-12.5" font-family="Helvetica,sans-Serif" font-size="10.00">src/plugins_types/identityref.c</text>
</a>
</g>
</g>
<!-- Node1&#45;&gt;Node10 -->
<g id="edge9_Node000001_Node000010" class="edge">
<title>Node1&#45;&gt;Node10</title>
<g id="a_edge9_Node000001_Node000010"><a xlink:title=" ">
<path fill="none" stroke="#63b8ff" d="M1998.67,-71.28C1889.55,-65.51 1663.37,-51.94 1473,-30 1460.12,-28.52 1446.26,-26.55 1433.36,-24.55"/>
<polygon fill="#63b8ff" stroke="#63b8ff" points="1998.69,-74.78 2008.86,-71.81 1999.06,-67.79 1998.69,-74.78"/>
</a>
</g>
</g>
<!-- Node11 -->
<g id="Node000011" class="node">
<title>Node11</title>
<g id="a_Node000011"><a xlink:href="instanceid_8c.html" target="_top" xlink:title="Built&#45;in instance&#45;identifier type plugin.">
<polygon fill="white" stroke="#666666" points="1645.5,-24.5 1482.5,-24.5 1482.5,-5.5 1645.5,-5.5 1645.5,-24.5"/>
<text text-anchor="middle" x="1564" y="-12.5" font-family="Helvetica,sans-Serif" font-size="10.00">src/plugins_types/instanceid.c</text>
</a>
</g>
</g>
<!-- Node1&#45;&gt;Node11 -->
<g id="edge10_Node000001_Node000011" class="edge">
<title>Node1&#45;&gt;Node11</title>
<g id="a_edge10_Node000001_Node000011"><a xlink:title=" ">
<path fill="none" stroke="#63b8ff" d="M1998.81,-68.36C1917.84,-60.52 1775.51,-46.04 1654,-30 1641.77,-28.39 1628.64,-26.46 1616.29,-24.55"/>
<polygon fill="#63b8ff" stroke="#63b8ff" points="1998.57,-71.86 2008.86,-69.33 1999.24,-64.89 1998.57,-71.86"/>
</a>
</g>
</g>
<!-- Node12 -->
<g id="Node000012" class="node">
<title>Node12</title>
<g id="a_Node000012"><a xlink:href="instanceid__keys_8c.html" target="_top" xlink:title="ietf&#45;netconf edit&#45;config key metadata instance&#45;identifier keys predicate type plugin.">
<polygon fill="white" stroke="#666666" points="1818.5,-30 1663.5,-30 1663.5,0 1818.5,0 1818.5,-30"/>
<text text-anchor="start" x="1671.5" y="-18" font-family="Helvetica,sans-Serif" font-size="10.00">src/plugins_types/instanceid</text>
<text text-anchor="middle" x="1741" y="-7" font-family="Helvetica,sans-Serif" font-size="10.00">_keys.c</text>
</a>
</g>
</g>
<!-- Node1&#45;&gt;Node12 -->
<g id="edge11_Node000001_Node000012" class="edge">
<title>Node1&#45;&gt;Node12</title>
<g id="a_edge11_Node000001_Node000012"><a xlink:title=" ">
<path fill="none" stroke="#63b8ff" d="M2006.9,-64.16C1954.47,-54.66 1876.36,-40.51 1818.34,-30.01"/>
<polygon fill="#63b8ff" stroke="#63b8ff" points="2006.57,-67.66 2017.03,-65.99 2007.82,-60.77 2006.57,-67.66"/>
</a>
</g>
</g>
<!-- Node13 -->
<g id="Node000013" class="node">
<title>Node13</title>
<g id="a_Node000013"><a xlink:href="integer_8c.html" target="_top" xlink:title="Built&#45;in integer types plugin.">
<polygon fill="white" stroke="#666666" points="1983,-24.5 1837,-24.5 1837,-5.5 1983,-5.5 1983,-24.5"/>
<text text-anchor="middle" x="1910" y="-12.5" font-family="Helvetica,sans-Serif" font-size="10.00">src/plugins_types/integer.c</text>
</a>
</g>
</g>
<!-- Node1&#45;&gt;Node13 -->
<g id="edge12_Node000001_Node000013" class="edge">
<title>Node1&#45;&gt;Node13</title>
<g id="a_edge12_Node000001_Node000013"><a xlink:title=" ">
<path fill="none" stroke="#63b8ff" d="M2032.09,-62.38C2002.32,-51.07 1958.66,-34.49 1932.42,-24.52"/>
<polygon fill="#63b8ff" stroke="#63b8ff" points="2031.02,-65.71 2041.61,-65.99 2033.5,-59.17 2031.02,-65.71"/>
</a>
</g>
</g>
<!-- Node14 -->
<g id="Node000014" class="node">
<title>Node14</title>
<g id="a_Node000014"><a xlink:href="ipv4__address_8c.html" target="_top" xlink:title="ietf&#45;inet&#45;types ipv4&#45;address type plugin.">
<polygon fill="white" stroke="#666666" points="2126.5,-30 2001.5,-30 2001.5,0 2126.5,0 2126.5,-30"/>
<text text-anchor="start" x="2009.5" y="-18" font-family="Helvetica,sans-Serif" font-size="10.00">src/plugins_types/ipv4</text>
<text text-anchor="middle" x="2064" y="-7" font-family="Helvetica,sans-Serif" font-size="10.00">_address.c</text>
</a>
</g>
</g>
<!-- Node1&#45;&gt;Node14 -->
<g id="edge13_Node000001_Node000014" class="edge">
<title>Node1&#45;&gt;Node14</title>
<g id="a_edge13_Node000001_Node000014"><a xlink:title=" ">
<path fill="none" stroke="#63b8ff" d="M2064,-55.65C2064,-47.36 2064,-37.78 2064,-30.11"/>
<polygon fill="#63b8ff" stroke="#63b8ff" points="2060.5,-55.87 2064,-65.87 2067.5,-55.87 2060.5,-55.87"/>
</a>
</g>
</g>
<!-- Node15 -->
<g id="Node000015" class="node">
<title>Node15</title>
<g id="a_Node000015"><a xlink:href="ipv4__address__no__zone_8c.html" target="_top" xlink:title="ietf&#45;inet&#45;types ipv4&#45;address&#45;no&#45;zone type plugin.">
<polygon fill="white" stroke="#666666" points="2269.5,-30 2144.5,-30 2144.5,0 2269.5,0 2269.5,-30"/>
<text text-anchor="start" x="2152.5" y="-18" font-family="Helvetica,sans-Serif" font-size="10.00">src/plugins_types/ipv4</text>
<text text-anchor="middle" x="2207" y="-7" font-family="Helvetica,sans-Serif" font-size="10.00">_address_no_zone.c</text>
</a>
</g>
</g>
<!-- Node1&#45;&gt;Node15 -->
<g id="edge14_Node000001_Node000015" class="edge">
<title>Node1&#45;&gt;Node15</title>
<g id="a_edge14_Node000001_Node000015"><a xlink:title=" ">
<path fill="none" stroke="#63b8ff" d="M2094.05,-62.21C2117,-52.82 2148.66,-39.87 2172.62,-30.06"/>
<polygon fill="#63b8ff" stroke="#63b8ff" points="2092.72,-58.97 2084.79,-65.99 2095.37,-65.45 2092.72,-58.97"/>
</a>
</g>
</g>
<!-- Node16 -->
<g id="Node000016" class="node">
<title>Node16</title>
<g id="a_Node000016"><a xlink:href="ipv4__prefix_8c.html" target="_top" xlink:title="ietf&#45;inet&#45;types ipv4&#45;prefix type plugin.">
<polygon fill="white" stroke="#666666" points="2412.5,-30 2287.5,-30 2287.5,0 2412.5,0 2412.5,-30"/>
<text text-anchor="start" x="2295.5" y="-18" font-family="Helvetica,sans-Serif" font-size="10.00">src/plugins_types/ipv4</text>
<text text-anchor="middle" x="2350" y="-7" font-family="Helvetica,sans-Serif" font-size="10.00">_prefix.c</text>
</a>
</g>
</g>
<!-- Node1&#45;&gt;Node16 -->
<g id="edge15_Node000001_Node000016" class="edge">
<title>Node1&#45;&gt;Node16</title>
<g id="a_edge15_Node000001_Node000016"><a xlink:title=" ">
<path fill="none" stroke="#63b8ff" d="M2115.49,-63.97C2163.66,-54.12 2235.72,-39.37 2287.24,-28.84"/>
<polygon fill="#63b8ff" stroke="#63b8ff" points="2114.68,-60.56 2105.59,-65.99 2116.09,-67.42 2114.68,-60.56"/>
</a>
</g>
</g>
<!-- Node17 -->
<g id="Node000017" class="node">
<title>Node17</title>
<g id="a_Node000017"><a xlink:href="ipv6__address_8c.html" target="_top" xlink:title="ietf&#45;inet&#45;types ipv6&#45;address type plugin.">
<polygon fill="white" stroke="#666666" points="2555.5,-30 2430.5,-30 2430.5,0 2555.5,0 2555.5,-30"/>
<text text-anchor="start" x="2438.5" y="-18" font-family="Helvetica,sans-Serif" font-size="10.00">src/plugins_types/ipv6</text>
<text text-anchor="middle" x="2493" y="-7" font-family="Helvetica,sans-Serif" font-size="10.00">_address.c</text>
</a>
</g>
</g>
<!-- Node1&#45;&gt;Node17 -->
<g id="edge16_Node000001_Node000017" class="edge">
<title>Node1&#45;&gt;Node17</title>
<g id="a_edge16_Node000001_Node000017"><a xlink:title=" ">
<path fill="none" stroke="#63b8ff" d="M2129.32,-67.79C2201.24,-60.07 2320.18,-46.35 2422,-30 2424.73,-29.56 2427.51,-29.1 2430.32,-28.61"/>
<polygon fill="#63b8ff" stroke="#63b8ff" points="2128.64,-64.34 2119.06,-68.88 2129.38,-71.3 2128.64,-64.34"/>
</a>
</g>
</g>
<!-- Node18 -->
<g id="Node000018" class="node">
<title>Node18</title>
<g id="a_Node000018"><a xlink:href="ipv6__address__no__zone_8c.html" target="_top" xlink:title="ietf&#45;inet&#45;types ipv6&#45;address&#45;no&#45;zone type plugin.">
<polygon fill="white" stroke="#666666" points="2698.5,-30 2573.5,-30 2573.5,0 2698.5,0 2698.5,-30"/>
<text text-anchor="start" x="2581.5" y="-18" font-family="Helvetica,sans-Serif" font-size="10.00">src/plugins_types/ipv6</text>
<text text-anchor="middle" x="2636" y="-7" font-family="Helvetica,sans-Serif" font-size="10.00">_address_no_zone.c</text>
</a>
</g>
</g>
<!-- Node1&#45;&gt;Node18 -->
<g id="edge17_Node000001_Node000018" class="edge">
<title>Node1&#45;&gt;Node18</title>
<g id="a_edge17_Node000001_Node000018"><a xlink:title=" ">
<path fill="none" stroke="#63b8ff" d="M2129.2,-70.92C2225.04,-65.17 2409.44,-52.18 2565,-30 2567.74,-29.61 2570.53,-29.18 2573.34,-28.73"/>
<polygon fill="#63b8ff" stroke="#63b8ff" points="2128.85,-67.44 2119.08,-71.52 2129.27,-74.43 2128.85,-67.44"/>
</a>
</g>
</g>
<!-- Node19 -->
<g id="Node000019" class="node">
<title>Node19</title>
<g id="a_Node000019"><a xlink:href="ipv6__prefix_8c.html" target="_top" xlink:title="ietf&#45;inet&#45;types ipv6&#45;prefix type plugin.">
<polygon fill="white" stroke="#666666" points="2841.5,-30 2716.5,-30 2716.5,0 2841.5,0 2841.5,-30"/>
<text text-anchor="start" x="2724.5" y="-18" font-family="Helvetica,sans-Serif" font-size="10.00">src/plugins_types/ipv6</text>
<text text-anchor="middle" x="2779" y="-7" font-family="Helvetica,sans-Serif" font-size="10.00">_prefix.c</text>
</a>
</g>
</g>
<!-- Node1&#45;&gt;Node19 -->
<g id="edge18_Node000001_Node000019" class="edge">
<title>Node1&#45;&gt;Node19</title>
<g id="a_edge18_Node000001_Node000019"><a xlink:title=" ">
<path fill="none" stroke="#63b8ff" d="M2129.57,-72.69C2246.31,-68.86 2497.7,-57.89 2708,-30 2710.74,-29.64 2713.53,-29.23 2716.35,-28.8"/>
<polygon fill="#63b8ff" stroke="#63b8ff" points="2129.25,-69.2 2119.37,-73.02 2129.47,-76.2 2129.25,-69.2"/>
</a>
</g>
</g>
<!-- Node20 -->
<g id="Node000020" class="node">
<title>Node20</title>
<g id="a_Node000020"><a xlink:href="leafref_8c.html" target="_top" xlink:title="Built&#45;in leafref type plugin.">
<polygon fill="white" stroke="#666666" points="3004,-24.5 2860,-24.5 2860,-5.5 3004,-5.5 3004,-24.5"/>
<text text-anchor="middle" x="2932" y="-12.5" font-family="Helvetica,sans-Serif" font-size="10.00">src/plugins_types/leafref.c</text>
</a>
</g>
</g>
<!-- Node1&#45;&gt;Node20 -->
<g id="edge19_Node000001_Node000020" class="edge">
<title>Node1&#45;&gt;Node20</title>
<g id="a_edge19_Node000001_Node000020"><a xlink:title=" ">
<path fill="none" stroke="#63b8ff" d="M2129.22,-73.34C2264.3,-70.38 2584.32,-60.48 2851,-30 2863.05,-28.62 2876.03,-26.62 2887.99,-24.55"/>
<polygon fill="#63b8ff" stroke="#63b8ff" points="2128.97,-69.84 2119.05,-73.56 2129.12,-76.84 2128.97,-69.84"/>
</a>
</g>
</g>
<!-- Node21 -->
<g id="Node000021" class="node">
<title>Node21</title>
<g id="a_Node000021"><a xlink:href="lyds__tree_8c.html" target="_top" xlink:title="Internal type plugin for sorting data nodes.">
<polygon fill="white" stroke="#666666" points="3147.5,-30 3022.5,-30 3022.5,0 3147.5,0 3147.5,-30"/>
<text text-anchor="start" x="3030.5" y="-18" font-family="Helvetica,sans-Serif" font-size="10.00">src/plugins_types/lyds</text>
<text text-anchor="middle" x="3085" y="-7" font-family="Helvetica,sans-Serif" font-size="10.00">_tree.c</text>
</a>
</g>
</g>
<!-- Node1&#45;&gt;Node21 -->
<g id="edge20_Node000001_Node000021" class="edge">
<title>Node1&#45;&gt;Node21</title>
<g id="a_edge20_Node000001_Node000021"><a xlink:title=" ">
<path fill="none" stroke="#63b8ff" d="M2129.3,-74.69C2283.61,-74.44 2682.63,-69.65 3013,-30 3016.03,-29.64 3019.13,-29.22 3022.26,-28.76"/>
<polygon fill="#63b8ff" stroke="#63b8ff" points="2129.05,-71.19 2119.06,-74.7 2129.06,-78.19 2129.05,-71.19"/>
</a>
</g>
</g>
<!-- Node22 -->
<g id="Node000022" class="node">
<title>Node22</title>
<g id="a_Node000022"><a xlink:href="node__instanceid_8c.html" target="_top" xlink:title="ietf&#45;netconf&#45;acm node&#45;instance&#45;identifier type plugin.">
<polygon fill="white" stroke="#666666" points="3294,-30 3166,-30 3166,0 3294,0 3294,-30"/>
<text text-anchor="start" x="3174" y="-18" font-family="Helvetica,sans-Serif" font-size="10.00">src/plugins_types/node</text>
<text text-anchor="middle" x="3230" y="-7" font-family="Helvetica,sans-Serif" font-size="10.00">_instanceid.c</text>
</a>
</g>
</g>
<!-- Node1&#45;&gt;Node22 -->
<g id="edge21_Node000001_Node000022" class="edge">
<title>Node1&#45;&gt;Node22</title>
<g id="a_edge21_Node000001_Node000022"><a xlink:title=" ">
<path fill="none" stroke="#63b8ff" d="M2129.13,-75.22C2298.94,-76.36 2768.98,-74.85 3157,-30 3159.95,-29.66 3162.96,-29.27 3165.99,-28.83"/>
<polygon fill="#63b8ff" stroke="#63b8ff" points="2129.13,-71.72 2119.1,-75.14 2129.07,-78.72 2129.13,-71.72"/>
</a>
</g>
</g>
<!-- Node23 -->
<g id="Node000023" class="node">
<title>Node23</title>
<g id="a_Node000023"><a xlink:href="string_8c.html" target="_top" xlink:title="Built&#45;in string type plugin.">
<polygon fill="white" stroke="#666666" points="3452,-24.5 3312,-24.5 3312,-5.5 3452,-5.5 3452,-24.5"/>
<text text-anchor="middle" x="3382" y="-12.5" font-family="Helvetica,sans-Serif" font-size="10.00">src/plugins_types/string.c</text>
</a>
</g>
</g>
<!-- Node1&#45;&gt;Node23 -->
<g id="edge22_Node000001_Node000023" class="edge">
<title>Node1&#45;&gt;Node23</title>
<g id="a_edge22_Node000001_Node000023"><a xlink:title=" ">
<path fill="none" stroke="#63b8ff" d="M2129.28,-73.36C2350.7,-69.3 3072.15,-54.48 3303,-30 3315.19,-28.71 3328.33,-26.65 3340.34,-24.5"/>
<polygon fill="#63b8ff" stroke="#63b8ff" points="2129.05,-69.86 2119.12,-73.54 2129.18,-76.86 2129.05,-69.86"/>
</a>
</g>
</g>
<!-- Node24 -->
<g id="Node000024" class="node">
<title>Node24</title>
<g id="a_Node000024"><a xlink:href="time__period_8c.html" target="_top" xlink:title="libnetconf2&#45;netconf&#45;server time&#45;period type plugin.">
<polygon fill="white" stroke="#666666" points="3597.5,-30 3470.5,-30 3470.5,0 3597.5,0 3597.5,-30"/>
<text text-anchor="start" x="3478.5" y="-18" font-family="Helvetica,sans-Serif" font-size="10.00">src/plugins_types/time</text>
<text text-anchor="middle" x="3534" y="-7" font-family="Helvetica,sans-Serif" font-size="10.00">_period.c</text>
</a>
</g>
</g>
<!-- Node1&#45;&gt;Node24 -->
<g id="edge23_Node000001_Node000024" class="edge">
<title>Node1&#45;&gt;Node24</title>
<g id="a_edge23_Node000001_Node000024"><a xlink:title=" ">
<path fill="none" stroke="#63b8ff" d="M2129.39,-73.79C2368.91,-70.96 3197.96,-59.23 3461,-30 3464.08,-29.66 3467.22,-29.26 3470.39,-28.81"/>
<polygon fill="#63b8ff" stroke="#63b8ff" points="2129.06,-70.29 2119.11,-73.91 2129.15,-77.29 2129.06,-70.29"/>
</a>
</g>
</g>
<!-- Node25 -->
<g id="Node000025" class="node">
<title>Node25</title>
<g id="a_Node000025"><a xlink:href="union_8c.html" target="_top" xlink:title="Built&#45;in union type plugin.">
<polygon fill="white" stroke="#666666" points="3756,-24.5 3616,-24.5 3616,-5.5 3756,-5.5 3756,-24.5"/>
<text text-anchor="middle" x="3686" y="-12.5" font-family="Helvetica,sans-Serif" font-size="10.00">src/plugins_types/union.c</text>
</a>
</g>
</g>
<!-- Node1&#45;&gt;Node25 -->
<g id="edge24_Node000001_Node000025" class="edge">
<title>Node1&#45;&gt;Node25</title>
<g id="a_edge24_Node000001_Node000025"><a xlink:title=" ">
<path fill="none" stroke="#63b8ff" d="M2129.3,-73.89C2384.35,-71.32 3313.64,-60.06 3607,-30 3619.19,-28.75 3632.34,-26.71 3644.34,-24.56"/>
<polygon fill="#63b8ff" stroke="#63b8ff" points="2129.05,-70.4 2119.09,-73.99 2129.12,-77.39 2129.05,-70.4"/>
</a>
</g>
</g>
<!-- Node26 -->
<g id="Node000026" class="node">
<title>Node26</title>
<g id="a_Node000026"><a xlink:href="xpath1_80_8c.html" target="_top" xlink:title="ietf&#45;yang&#45;types xpath1.0 type plugin.">
<polygon fill="white" stroke="#666666" points="3929.5,-24.5 3774.5,-24.5 3774.5,-5.5 3929.5,-5.5 3929.5,-24.5"/>
<text text-anchor="middle" x="3852" y="-12.5" font-family="Helvetica,sans-Serif" font-size="10.00">src/plugins_types/xpath1.0.c</text>
</a>
</g>
</g>
<!-- Node1&#45;&gt;Node26 -->
<g id="edge25_Node000001_Node000026" class="edge">
<title>Node1&#45;&gt;Node26</title>
<g id="a_edge25_Node000001_Node000026"><a xlink:title=" ">
<path fill="none" stroke="#63b8ff" d="M2129.14,-73.96C2400.07,-71.53 3438.66,-60.39 3765,-30 3778.4,-28.75 3792.87,-26.71 3806.09,-24.56"/>
<polygon fill="#63b8ff" stroke="#63b8ff" points="2129.04,-70.46 2119.08,-74.05 2129.11,-77.46 2129.04,-70.46"/>
</a>
</g>
</g>
</g>
</svg>
