<?xml version="1.0" encoding="UTF-8" standalone="no"?>
<!DOCTYPE svg PUBLIC "-//W3C//DTD SVG 1.1//EN"
 "http://www.w3.org/Graphics/SVG/1.1/DTD/svg11.dtd">
<!-- Generated by graphviz version 2.42.4 (0)
 -->
<!-- Title: src/printer_data.h Pages: 1 -->
<svg width="726pt" height="247pt"
 viewBox="0.00 0.00 725.90 247.00" xmlns="http://www.w3.org/2000/svg" xmlns:xlink="http://www.w3.org/1999/xlink">
<g id="graph0" class="graph" transform="scale(1 1) rotate(0) translate(4 243)">
<title>src/printer_data.h</title>
<!-- Node1 -->
<g id="Node000001" class="node">
<title>Node1</title>
<g id="a_Node000001"><a xlink:title="Data printers for libyang.">
<polygon fill="#999999" stroke="#666666" points="577.9,-239 475.9,-239 475.9,-220 577.9,-220 577.9,-239"/>
<text text-anchor="middle" x="526.9" y="-227" font-family="Helvetica,sans-Serif" font-size="10.00">src/printer_data.h</text>
</a>
</g>
</g>
<!-- Node2 -->
<g id="Node000002" class="node">
<title>Node2</title>
<g id="a_Node000002"><a xlink:title=" ">
<polygon fill="#e0e0e0" stroke="#999999" points="204.4,-19 151.4,-19 151.4,0 204.4,0 204.4,-19"/>
<text text-anchor="middle" x="177.9" y="-7" font-family="Helvetica,sans-Serif" font-size="10.00">stdint.h</text>
</a>
</g>
</g>
<!-- Node1&#45;&gt;Node2 -->
<g id="edge1_Node000001_Node000002" class="edge">
<title>Node1&#45;&gt;Node2</title>
<g id="a_edge1_Node000001_Node000002"><a xlink:title=" ">
<path fill="none" stroke="#63b8ff" d="M475.69,-222.91C366.82,-210.23 116.64,-176.66 46.9,-129 16.21,-108.02 -14.81,-84.43 7.9,-55 24.07,-34.05 96.4,-21.06 141.34,-14.86"/>
<polygon fill="#63b8ff" stroke="#63b8ff" points="141.86,-18.32 151.31,-13.53 140.94,-11.38 141.86,-18.32"/>
</a>
</g>
</g>
<!-- Node3 -->
<g id="Node000003" class="node">
<title>Node3</title>
<g id="a_Node000003"><a xlink:title=" ">
<polygon fill="#e0e0e0" stroke="#999999" points="717.9,-74 667.9,-74 667.9,-55 717.9,-55 717.9,-74"/>
<text text-anchor="middle" x="692.9" y="-62" font-family="Helvetica,sans-Serif" font-size="10.00">stdio.h</text>
</a>
</g>
</g>
<!-- Node1&#45;&gt;Node3 -->
<g id="edge2_Node000001_Node000003" class="edge">
<title>Node1&#45;&gt;Node3</title>
<g id="a_edge2_Node000001_Node000003"><a xlink:title=" ">
<path fill="none" stroke="#63b8ff" d="M538.74,-219.98C550.66,-211.27 569.46,-197.18 584.9,-184 611.92,-160.93 618.96,-155.25 642.9,-129 656.73,-113.84 671.08,-95.28 680.84,-82.15"/>
<polygon fill="#63b8ff" stroke="#63b8ff" points="683.7,-84.16 686.8,-74.03 678.06,-80.02 683.7,-84.16"/>
</a>
</g>
</g>
<!-- Node4 -->
<g id="Node000004" class="node">
<title>Node4</title>
<g id="a_Node000004"><a xlink:href="log_8h.html" target="_top" xlink:title="Logger manipulation routines and error definitions.">
<polygon fill="white" stroke="#666666" points="369.4,-74 328.4,-74 328.4,-55 369.4,-55 369.4,-74"/>
<text text-anchor="middle" x="348.9" y="-62" font-family="Helvetica,sans-Serif" font-size="10.00">log.h</text>
</a>
</g>
</g>
<!-- Node1&#45;&gt;Node4 -->
<g id="edge3_Node000001_Node000004" class="edge">
<title>Node1&#45;&gt;Node4</title>
<g id="a_edge3_Node000001_Node000004"><a xlink:title=" ">
<path fill="none" stroke="#63b8ff" d="M528.37,-219.74C531.46,-198.13 536.2,-141.72 507.9,-110 475.42,-73.59 415.85,-65.93 379.57,-64.88"/>
<polygon fill="#63b8ff" stroke="#63b8ff" points="379.6,-61.38 369.55,-64.74 379.5,-68.38 379.6,-61.38"/>
</a>
</g>
</g>
<!-- Node6 -->
<g id="Node000006" class="node">
<title>Node6</title>
<g id="a_Node000006"><a xlink:href="out_8h.html" target="_top" xlink:title="libyang output structures and functions">
<polygon fill="white" stroke="#666666" points="634.4,-129 593.4,-129 593.4,-110 634.4,-110 634.4,-129"/>
<text text-anchor="middle" x="613.9" y="-117" font-family="Helvetica,sans-Serif" font-size="10.00">out.h</text>
</a>
</g>
</g>
<!-- Node1&#45;&gt;Node6 -->
<g id="edge6_Node000001_Node000006" class="edge">
<title>Node1&#45;&gt;Node6</title>
<g id="a_edge6_Node000001_Node000006"><a xlink:title=" ">
<path fill="none" stroke="#63b8ff" d="M534.02,-219.66C548.56,-201.61 581.86,-160.28 600.55,-137.08"/>
<polygon fill="#63b8ff" stroke="#63b8ff" points="603.38,-139.14 606.93,-129.16 597.93,-134.75 603.38,-139.14"/>
</a>
</g>
</g>
<!-- Node8 -->
<g id="Node000008" class="node">
<title>Node8</title>
<g id="a_Node000008"><a xlink:href="tree__data_8h.html" target="_top" xlink:title="libyang representation of YANG data trees.">
<polygon fill="white" stroke="#666666" points="347.9,-184 275.9,-184 275.9,-165 347.9,-165 347.9,-184"/>
<text text-anchor="middle" x="311.9" y="-172" font-family="Helvetica,sans-Serif" font-size="10.00">tree_data.h</text>
</a>
</g>
</g>
<!-- Node1&#45;&gt;Node8 -->
<g id="edge10_Node000001_Node000008" class="edge">
<title>Node1&#45;&gt;Node8</title>
<g id="a_edge10_Node000001_Node000008"><a xlink:title=" ">
<path fill="none" stroke="#63b8ff" d="M492.36,-219.98C455.48,-210.89 396.92,-196.46 356.56,-186.51"/>
<polygon fill="#63b8ff" stroke="#63b8ff" points="357.26,-183.08 346.72,-184.08 355.59,-189.87 357.26,-183.08"/>
</a>
</g>
</g>
<!-- Node4&#45;&gt;Node2 -->
<g id="edge4_Node000004_Node000002" class="edge">
<title>Node4&#45;&gt;Node2</title>
<g id="a_edge4_Node000004_Node000002"><a xlink:title=" ">
<path fill="none" stroke="#63b8ff" d="M328.28,-57.11C300.06,-48.36 248.98,-32.53 214.26,-21.77"/>
<polygon fill="#63b8ff" stroke="#63b8ff" points="215.08,-18.36 204.49,-18.74 213.01,-25.05 215.08,-18.36"/>
</a>
</g>
</g>
<!-- Node5 -->
<g id="Node000005" class="node">
<title>Node5</title>
<g id="a_Node000005"><a xlink:title=" ">
<polygon fill="#e0e0e0" stroke="#999999" points="383.4,-19 314.4,-19 314.4,0 383.4,0 383.4,-19"/>
<text text-anchor="middle" x="348.9" y="-7" font-family="Helvetica,sans-Serif" font-size="10.00">ly_config.h</text>
</a>
</g>
</g>
<!-- Node4&#45;&gt;Node5 -->
<g id="edge5_Node000004_Node000005" class="edge">
<title>Node4&#45;&gt;Node5</title>
<g id="a_edge5_Node000004_Node000005"><a xlink:title=" ">
<path fill="none" stroke="#63b8ff" d="M348.9,-54.75C348.9,-47.8 348.9,-37.85 348.9,-29.13"/>
<polygon fill="#63b8ff" stroke="#63b8ff" points="352.4,-29.09 348.9,-19.09 345.4,-29.09 352.4,-29.09"/>
</a>
</g>
</g>
<!-- Node6&#45;&gt;Node3 -->
<g id="edge7_Node000006_Node000003" class="edge">
<title>Node6&#45;&gt;Node3</title>
<g id="a_edge7_Node000006_Node000003"><a xlink:title=" ">
<path fill="none" stroke="#63b8ff" d="M626.6,-109.98C638.73,-101.84 657.26,-89.41 671.65,-79.76"/>
<polygon fill="#63b8ff" stroke="#63b8ff" points="673.63,-82.65 679.98,-74.17 669.73,-76.84 673.63,-82.65"/>
</a>
</g>
</g>
<!-- Node6&#45;&gt;Node4 -->
<g id="edge9_Node000006_Node000004" class="edge">
<title>Node6&#45;&gt;Node4</title>
<g id="a_edge9_Node000006_Node000004"><a xlink:title=" ">
<path fill="none" stroke="#63b8ff" d="M593.11,-114.34C546.67,-105.05 434.31,-82.58 379.71,-71.66"/>
<polygon fill="#63b8ff" stroke="#63b8ff" points="380.09,-68.17 369.6,-69.64 378.72,-75.03 380.09,-68.17"/>
</a>
</g>
</g>
<!-- Node7 -->
<g id="Node000007" class="node">
<title>Node7</title>
<g id="a_Node000007"><a xlink:title=" ">
<polygon fill="#e0e0e0" stroke="#999999" points="649.9,-74 577.9,-74 577.9,-55 649.9,-55 649.9,-74"/>
<text text-anchor="middle" x="613.9" y="-62" font-family="Helvetica,sans-Serif" font-size="10.00">sys/types.h</text>
</a>
</g>
</g>
<!-- Node6&#45;&gt;Node7 -->
<g id="edge8_Node000006_Node000007" class="edge">
<title>Node6&#45;&gt;Node7</title>
<g id="a_edge8_Node000006_Node000007"><a xlink:title=" ">
<path fill="none" stroke="#63b8ff" d="M613.9,-109.75C613.9,-102.8 613.9,-92.85 613.9,-84.13"/>
<polygon fill="#63b8ff" stroke="#63b8ff" points="617.4,-84.09 613.9,-74.09 610.4,-84.09 617.4,-84.09"/>
</a>
</g>
</g>
<!-- Node8&#45;&gt;Node2 -->
<g id="edge14_Node000008_Node000002" class="edge">
<title>Node8&#45;&gt;Node2</title>
<g id="a_edge14_Node000008_Node000002"><a xlink:title=" ">
<path fill="none" stroke="#63b8ff" d="M275.61,-169.52C227.62,-163.49 146.8,-150.42 126.9,-129 104.36,-104.72 103.01,-84.59 117.9,-55 124.59,-41.71 137.34,-31.39 149.37,-24.05"/>
<polygon fill="#63b8ff" stroke="#63b8ff" points="151.32,-26.97 158.32,-19.02 147.89,-20.87 151.32,-26.97"/>
</a>
</g>
</g>
<!-- Node8&#45;&gt;Node4 -->
<g id="edge16_Node000008_Node000004" class="edge">
<title>Node8&#45;&gt;Node4</title>
<g id="a_edge16_Node000008_Node000004"><a xlink:title=" ">
<path fill="none" stroke="#63b8ff" d="M315.45,-164.69C319,-155.76 324.55,-141.5 328.9,-129 334.13,-113.97 339.52,-96.74 343.39,-84.03"/>
<polygon fill="#63b8ff" stroke="#63b8ff" points="346.82,-84.77 346.35,-74.18 340.12,-82.75 346.82,-84.77"/>
</a>
</g>
</g>
<!-- Node8&#45;&gt;Node5 -->
<g id="edge17_Node000008_Node000005" class="edge">
<title>Node8&#45;&gt;Node5</title>
<g id="a_edge17_Node000008_Node000005"><a xlink:title=" ">
<path fill="none" stroke="#63b8ff" d="M348.29,-170.55C399.37,-165.57 488.31,-153.54 507.9,-129 547.09,-79.91 449.67,-40.61 390.44,-22.07"/>
<polygon fill="#63b8ff" stroke="#63b8ff" points="391.17,-18.63 380.58,-19.06 389.13,-25.33 391.17,-18.63"/>
</a>
</g>
</g>
<!-- Node9 -->
<g id="Node000009" class="node">
<title>Node9</title>
<g id="a_Node000009"><a xlink:title=" ">
<polygon fill="#e0e0e0" stroke="#999999" points="213.4,-129 144.4,-129 144.4,-110 213.4,-110 213.4,-129"/>
<text text-anchor="middle" x="178.9" y="-117" font-family="Helvetica,sans-Serif" font-size="10.00">arpa/inet.h</text>
</a>
</g>
</g>
<!-- Node8&#45;&gt;Node9 -->
<g id="edge11_Node000008_Node000009" class="edge">
<title>Node8&#45;&gt;Node9</title>
<g id="a_edge11_Node000008_Node000009"><a xlink:title=" ">
<path fill="none" stroke="#63b8ff" d="M290.53,-164.98C268.75,-156.3 234.74,-142.75 209.98,-132.88"/>
<polygon fill="#63b8ff" stroke="#63b8ff" points="211.25,-129.62 200.66,-129.17 208.65,-136.12 211.25,-129.62"/>
</a>
</g>
</g>
<!-- Node10 -->
<g id="Node000010" class="node">
<title>Node10</title>
<g id="a_Node000010"><a xlink:title=" ">
<polygon fill="#e0e0e0" stroke="#999999" points="180.4,-74 127.4,-74 127.4,-55 180.4,-55 180.4,-74"/>
<text text-anchor="middle" x="153.9" y="-62" font-family="Helvetica,sans-Serif" font-size="10.00">pcre2.h</text>
</a>
</g>
</g>
<!-- Node8&#45;&gt;Node10 -->
<g id="edge12_Node000008_Node000010" class="edge">
<title>Node8&#45;&gt;Node10</title>
<g id="a_edge12_Node000008_Node000010"><a xlink:title=" ">
<path fill="none" stroke="#63b8ff" d="M275.87,-169.62C229.28,-163.78 152.05,-150.99 134.9,-129 124.44,-115.58 132.4,-96.48 141,-82.73"/>
<polygon fill="#63b8ff" stroke="#63b8ff" points="144.07,-84.44 146.83,-74.21 138.29,-80.49 144.07,-84.44"/>
</a>
</g>
</g>
<!-- Node11 -->
<g id="Node000011" class="node">
<title>Node11</title>
<g id="a_Node000011"><a xlink:title=" ">
<polygon fill="#e0e0e0" stroke="#999999" points="432.9,-129 376.9,-129 376.9,-110 432.9,-110 432.9,-129"/>
<text text-anchor="middle" x="404.9" y="-117" font-family="Helvetica,sans-Serif" font-size="10.00">stddef.h</text>
</a>
</g>
</g>
<!-- Node8&#45;&gt;Node11 -->
<g id="edge13_Node000008_Node000011" class="edge">
<title>Node8&#45;&gt;Node11</title>
<g id="a_edge13_Node000008_Node000011"><a xlink:title=" ">
<path fill="none" stroke="#63b8ff" d="M326.85,-164.98C341.4,-156.69 363.77,-143.94 380.84,-134.22"/>
<polygon fill="#63b8ff" stroke="#63b8ff" points="382.73,-137.16 389.69,-129.17 379.27,-131.08 382.73,-137.16"/>
</a>
</g>
</g>
<!-- Node12 -->
<g id="Node000012" class="node">
<title>Node12</title>
<g id="a_Node000012"><a xlink:title=" ">
<polygon fill="#e0e0e0" stroke="#999999" points="498.9,-129 450.9,-129 450.9,-110 498.9,-110 498.9,-129"/>
<text text-anchor="middle" x="474.9" y="-117" font-family="Helvetica,sans-Serif" font-size="10.00">time.h</text>
</a>
</g>
</g>
<!-- Node8&#45;&gt;Node12 -->
<g id="edge15_Node000008_Node000012" class="edge">
<title>Node8&#45;&gt;Node12</title>
<g id="a_edge15_Node000008_Node000012"><a xlink:title=" ">
<path fill="none" stroke="#63b8ff" d="M338.09,-164.98C365.99,-155.91 410.25,-141.52 440.84,-131.58"/>
<polygon fill="#63b8ff" stroke="#63b8ff" points="442.21,-134.81 450.64,-128.39 440.05,-128.15 442.21,-134.81"/>
</a>
</g>
</g>
<!-- Node13 -->
<g id="Node000013" class="node">
<title>Node13</title>
<g id="a_Node000013"><a xlink:href="tree_8h.html" target="_top" xlink:title="libyang generic macros and functions to work with YANG schema or data trees.">
<polygon fill="white" stroke="#666666" points="62.4,-74 17.4,-74 17.4,-55 62.4,-55 62.4,-74"/>
<text text-anchor="middle" x="39.9" y="-62" font-family="Helvetica,sans-Serif" font-size="10.00">tree.h</text>
</a>
</g>
</g>
<!-- Node8&#45;&gt;Node13 -->
<g id="edge18_Node000008_Node000013" class="edge">
<title>Node8&#45;&gt;Node13</title>
<g id="a_edge18_Node000008_Node000013"><a xlink:title=" ">
<path fill="none" stroke="#63b8ff" d="M275.88,-171.35C215.08,-167.02 95.61,-155.35 63.9,-129 50.6,-117.94 44.66,-98.69 42.02,-84.28"/>
<polygon fill="#63b8ff" stroke="#63b8ff" points="45.43,-83.4 40.52,-74 38.5,-84.4 45.43,-83.4"/>
</a>
</g>
</g>
<!-- Node15 -->
<g id="Node000015" class="node">
<title>Node15</title>
<g id="a_Node000015"><a xlink:href="tree__schema_8h.html" target="_top" xlink:title="libyang representation of YANG schema trees.">
<polygon fill="white" stroke="#666666" points="320.4,-129 231.4,-129 231.4,-110 320.4,-110 320.4,-129"/>
<text text-anchor="middle" x="275.9" y="-117" font-family="Helvetica,sans-Serif" font-size="10.00">tree_schema.h</text>
</a>
</g>
</g>
<!-- Node8&#45;&gt;Node15 -->
<g id="edge20_Node000008_Node000015" class="edge">
<title>Node8&#45;&gt;Node15</title>
<g id="a_edge20_Node000008_Node000015"><a xlink:title=" ">
<path fill="none" stroke="#63b8ff" d="M305.96,-164.75C300.93,-157.34 293.57,-146.5 287.39,-137.41"/>
<polygon fill="#63b8ff" stroke="#63b8ff" points="290.25,-135.39 281.74,-129.09 284.46,-139.33 290.25,-135.39"/>
</a>
</g>
</g>
<!-- Node14 -->
<g id="Node000014" class="node">
<title>Node14</title>
<g id="a_Node000014"><a xlink:title=" ">
<polygon fill="#e0e0e0" stroke="#999999" points="72.4,-19 7.4,-19 7.4,0 72.4,0 72.4,-19"/>
<text text-anchor="middle" x="39.9" y="-7" font-family="Helvetica,sans-Serif" font-size="10.00">inttypes.h</text>
</a>
</g>
</g>
<!-- Node13&#45;&gt;Node14 -->
<g id="edge19_Node000013_Node000014" class="edge">
<title>Node13&#45;&gt;Node14</title>
<g id="a_edge19_Node000013_Node000014"><a xlink:title=" ">
<path fill="none" stroke="#63b8ff" d="M39.9,-54.75C39.9,-47.8 39.9,-37.85 39.9,-29.13"/>
<polygon fill="#63b8ff" stroke="#63b8ff" points="43.4,-29.09 39.9,-19.09 36.4,-29.09 43.4,-29.09"/>
</a>
</g>
</g>
<!-- Node15&#45;&gt;Node2 -->
<g id="edge22_Node000015_Node000002" class="edge">
<title>Node15&#45;&gt;Node2</title>
<g id="a_edge22_Node000015_Node000002"><a xlink:title=" ">
<path fill="none" stroke="#63b8ff" d="M267.88,-109.66C251.44,-91.54 213.67,-49.91 192.67,-26.77"/>
<polygon fill="#63b8ff" stroke="#63b8ff" points="195.07,-24.21 185.76,-19.16 189.89,-28.92 195.07,-24.21"/>
</a>
</g>
</g>
<!-- Node15&#45;&gt;Node3 -->
<g id="edge23_Node000015_Node000003" class="edge">
<title>Node15&#45;&gt;Node3</title>
<g id="a_edge23_Node000015_Node000003"><a xlink:title=" ">
<path fill="none" stroke="#63b8ff" d="M320.51,-114.05C403.33,-105.67 578.91,-87.34 657.72,-73.95"/>
<polygon fill="#63b8ff" stroke="#63b8ff" points="658.49,-77.37 667.73,-72.18 657.27,-70.47 658.49,-77.37"/>
</a>
</g>
</g>
<!-- Node15&#45;&gt;Node4 -->
<g id="edge24_Node000015_Node000004" class="edge">
<title>Node15&#45;&gt;Node4</title>
<g id="a_edge24_Node000015_Node000004"><a xlink:title=" ">
<path fill="none" stroke="#63b8ff" d="M287.63,-109.98C298.63,-102 315.32,-89.88 328.51,-80.31"/>
<polygon fill="#63b8ff" stroke="#63b8ff" points="330.93,-82.88 336.96,-74.17 326.81,-77.21 330.93,-82.88"/>
</a>
</g>
</g>
<!-- Node15&#45;&gt;Node5 -->
<g id="edge25_Node000015_Node000005" class="edge">
<title>Node15&#45;&gt;Node5</title>
<g id="a_edge25_Node000015_Node000005"><a xlink:title=" ">
<path fill="none" stroke="#63b8ff" d="M281.88,-109.66C293.97,-91.77 321.53,-51 337.28,-27.69"/>
<polygon fill="#63b8ff" stroke="#63b8ff" points="340.35,-29.4 343.05,-19.16 334.55,-25.48 340.35,-29.4"/>
</a>
</g>
</g>
<!-- Node15&#45;&gt;Node10 -->
<g id="edge21_Node000015_Node000010" class="edge">
<title>Node15&#45;&gt;Node10</title>
<g id="a_edge21_Node000015_Node000010"><a xlink:title=" ">
<path fill="none" stroke="#63b8ff" d="M256.3,-109.98C236.59,-101.42 205.95,-88.11 183.32,-78.28"/>
<polygon fill="#63b8ff" stroke="#63b8ff" points="184.43,-74.94 173.86,-74.17 181.64,-81.37 184.43,-74.94"/>
</a>
</g>
</g>
<!-- Node15&#45;&gt;Node13 -->
<g id="edge26_Node000015_Node000013" class="edge">
<title>Node15&#45;&gt;Node13</title>
<g id="a_edge26_Node000015_Node000013"><a xlink:title=" ">
<path fill="none" stroke="#63b8ff" d="M237.99,-109.98C192.12,-99.69 115.7,-82.52 72.42,-72.8"/>
<polygon fill="#63b8ff" stroke="#63b8ff" points="72.94,-69.33 62.42,-70.56 71.41,-76.16 72.94,-69.33"/>
</a>
</g>
</g>
</g>
</svg>
