<?xml version="1.0" encoding="UTF-8" standalone="no"?>
<!DOCTYPE svg PUBLIC "-//W3C//DTD SVG 1.1//EN"
 "http://www.w3.org/Graphics/SVG/1.1/DTD/svg11.dtd">
<!-- Generated by graphviz version 2.42.4 (0)
 -->
<!-- Title: src/printer_schema.h Pages: 1 -->
<svg width="233pt" height="192pt"
 viewBox="0.00 0.00 232.73 192.00" xmlns="http://www.w3.org/2000/svg" xmlns:xlink="http://www.w3.org/1999/xlink">

<svg id="main" version="1.1" xmlns="http://www.w3.org/2000/svg" xmlns:xlink="http://www.w3.org/1999/xlink" xml:space="preserve" onload="init(evt)">
<style type="text/css"><![CDATA[
.node, .edge {opacity: 0.7;}
.node.selected, .edge.selected {opacity: 1;}
.edge:hover path { stroke: red; }
.edge:hover polygon { stroke: red; fill: red; }
]]></style>
<script type="application/ecmascript" xlink:href="svg.min.js"/>
<svg id="graph" class="graph">
<g id="graph0" class="graph" transform="scale(1 1) rotate(0) translate(4 188)">
<title>src/printer_schema.h</title>
<!-- Node1 -->
<g id="Node000001" class="node">
<title>Node1</title>
<g id="a_Node000001"><a xlink:title="Schema printers for libyang.">
<polygon fill="#999999" stroke="#666666" points="126.73,-184 7.73,-184 7.73,-165 126.73,-165 126.73,-184"/>
<text text-anchor="middle" x="67.23" y="-172" font-family="Helvetica,sans-Serif" font-size="10.00">src/printer_schema.h</text>
</a>
</g>
</g>
<!-- Node2 -->
<g id="Node000002" class="node">
<title>Node2</title>
<g id="a_Node000002"><a xlink:title=" ">
<polygon fill="#e0e0e0" stroke="#999999" points="73.73,-19 20.73,-19 20.73,0 73.73,0 73.73,-19"/>
<text text-anchor="middle" x="47.23" y="-7" font-family="Helvetica,sans-Serif" font-size="10.00">stdint.h</text>
</a>
</g>
</g>
<!-- Node1&#45;&gt;Node2 -->
<g id="edge1_Node000001_Node000002" class="edge">
<title>Node1&#45;&gt;Node2</title>
<g id="a_edge1_Node000001_Node000002"><a xlink:title=" ">
<path fill="none" stroke="#63b8ff" d="M58.96,-164.82C44.12,-148.57 13.47,-111.77 2.23,-74 -0.18,-65.91 -1.02,-62.79 2.23,-55 7.09,-43.36 16.65,-33.2 25.71,-25.55"/>
<polygon fill="#63b8ff" stroke="#63b8ff" points="28.03,-28.17 33.74,-19.25 23.71,-22.67 28.03,-28.17"/>
</a>
</g>
</g>
<!-- Node3 -->
<g id="Node000003" class="node">
<title>Node3</title>
<g id="a_Node000003"><a xlink:title=" ">
<polygon fill="#e0e0e0" stroke="#999999" points="61.23,-74 11.23,-74 11.23,-55 61.23,-55 61.23,-74"/>
<text text-anchor="middle" x="36.23" y="-62" font-family="Helvetica,sans-Serif" font-size="10.00">stdio.h</text>
</a>
</g>
</g>
<!-- Node1&#45;&gt;Node3 -->
<g id="edge2_Node000001_Node000003" class="edge">
<title>Node1&#45;&gt;Node3</title>
<g id="a_edge2_Node000001_Node000003"><a xlink:title=" ">
<path fill="none" stroke="#63b8ff" d="M64.69,-164.66C59.65,-147.09 48.27,-107.45 41.53,-83.95"/>
<polygon fill="#63b8ff" stroke="#63b8ff" points="44.84,-82.8 38.71,-74.16 38.11,-84.74 44.84,-82.8"/>
</a>
</g>
</g>
<!-- Node4 -->
<g id="Node000004" class="node">
<title>Node4</title>
<g id="a_Node000004"><a xlink:href="log_8h.html" target="_top" xlink:title="Logger manipulation routines and error definitions.">
<polygon fill="white" stroke="#666666" points="210.73,-74 169.73,-74 169.73,-55 210.73,-55 210.73,-74"/>
<text text-anchor="middle" x="190.23" y="-62" font-family="Helvetica,sans-Serif" font-size="10.00">log.h</text>
</a>
</g>
</g>
<!-- Node1&#45;&gt;Node4 -->
<g id="edge3_Node000001_Node000004" class="edge">
<title>Node1&#45;&gt;Node4</title>
<g id="a_edge3_Node000001_Node000004"><a xlink:title=" ">
<path fill="none" stroke="#63b8ff" d="M83.78,-164.91C98.62,-156.77 120.57,-143.64 137.23,-129 153.18,-114.99 168.39,-95.97 178.39,-82.41"/>
<polygon fill="#63b8ff" stroke="#63b8ff" points="181.43,-84.19 184.43,-74.03 175.74,-80.1 181.43,-84.19"/>
</a>
</g>
</g>
<!-- Node6 -->
<g id="Node000006" class="node">
<title>Node6</title>
<g id="a_Node000006"><a xlink:href="out_8h.html" target="_top" xlink:title="libyang output structures and functions">
<polygon fill="white" stroke="#666666" points="127.73,-129 86.73,-129 86.73,-110 127.73,-110 127.73,-129"/>
<text text-anchor="middle" x="107.23" y="-117" font-family="Helvetica,sans-Serif" font-size="10.00">out.h</text>
</a>
</g>
</g>
<!-- Node1&#45;&gt;Node6 -->
<g id="edge6_Node000001_Node000006" class="edge">
<title>Node1&#45;&gt;Node6</title>
<g id="a_edge6_Node000001_Node000006"><a xlink:title=" ">
<path fill="none" stroke="#63b8ff" d="M73.83,-164.75C79.48,-157.26 87.77,-146.28 94.68,-137.13"/>
<polygon fill="#63b8ff" stroke="#63b8ff" points="97.52,-139.18 100.75,-129.09 91.93,-134.96 97.52,-139.18"/>
</a>
</g>
</g>
<!-- Node4&#45;&gt;Node2 -->
<g id="edge4_Node000004_Node000002" class="edge">
<title>Node4&#45;&gt;Node2</title>
<g id="a_edge4_Node000004_Node000002"><a xlink:title=" ">
<path fill="none" stroke="#63b8ff" d="M169.44,-55.79C145.98,-47.1 107.52,-32.85 80.01,-22.65"/>
<polygon fill="#63b8ff" stroke="#63b8ff" points="81.01,-19.29 70.42,-19.1 78.58,-25.85 81.01,-19.29"/>
</a>
</g>
</g>
<!-- Node5 -->
<g id="Node000005" class="node">
<title>Node5</title>
<g id="a_Node000005"><a xlink:title=" ">
<polygon fill="#e0e0e0" stroke="#999999" points="224.73,-19 155.73,-19 155.73,0 224.73,0 224.73,-19"/>
<text text-anchor="middle" x="190.23" y="-7" font-family="Helvetica,sans-Serif" font-size="10.00">ly_config.h</text>
</a>
</g>
</g>
<!-- Node4&#45;&gt;Node5 -->
<g id="edge5_Node000004_Node000005" class="edge">
<title>Node4&#45;&gt;Node5</title>
<g id="a_edge5_Node000004_Node000005"><a xlink:title=" ">
<path fill="none" stroke="#63b8ff" d="M190.23,-54.75C190.23,-47.8 190.23,-37.85 190.23,-29.13"/>
<polygon fill="#63b8ff" stroke="#63b8ff" points="193.73,-29.09 190.23,-19.09 186.73,-29.09 193.73,-29.09"/>
</a>
</g>
</g>
<!-- Node6&#45;&gt;Node3 -->
<g id="edge7_Node000006_Node000003" class="edge">
<title>Node6&#45;&gt;Node3</title>
<g id="a_edge7_Node000006_Node000003"><a xlink:title=" ">
<path fill="none" stroke="#63b8ff" d="M95.82,-109.98C85.12,-102 68.89,-89.88 56.07,-80.31"/>
<polygon fill="#63b8ff" stroke="#63b8ff" points="57.95,-77.35 47.84,-74.17 53.76,-82.96 57.95,-77.35"/>
</a>
</g>
</g>
<!-- Node6&#45;&gt;Node4 -->
<g id="edge9_Node000006_Node000004" class="edge">
<title>Node6&#45;&gt;Node4</title>
<g id="a_edge9_Node000006_Node000004"><a xlink:title=" ">
<path fill="none" stroke="#63b8ff" d="M120.56,-109.98C133.32,-101.84 152.78,-89.41 167.9,-79.76"/>
<polygon fill="#63b8ff" stroke="#63b8ff" points="170.11,-82.5 176.65,-74.17 166.34,-76.6 170.11,-82.5"/>
</a>
</g>
</g>
<!-- Node7 -->
<g id="Node000007" class="node">
<title>Node7</title>
<g id="a_Node000007"><a xlink:title=" ">
<polygon fill="#e0e0e0" stroke="#999999" points="151.23,-74 79.23,-74 79.23,-55 151.23,-55 151.23,-74"/>
<text text-anchor="middle" x="115.23" y="-62" font-family="Helvetica,sans-Serif" font-size="10.00">sys/types.h</text>
</a>
</g>
</g>
<!-- Node6&#45;&gt;Node7 -->
<g id="edge8_Node000006_Node000007" class="edge">
<title>Node6&#45;&gt;Node7</title>
<g id="a_edge8_Node000006_Node000007"><a xlink:title=" ">
<path fill="none" stroke="#63b8ff" d="M108.55,-109.75C109.6,-102.8 111.1,-92.85 112.42,-84.13"/>
<polygon fill="#63b8ff" stroke="#63b8ff" points="115.9,-84.5 113.93,-74.09 108.98,-83.45 115.9,-84.5"/>
</a>
</g>
</g>
</g>
</svg>
</svg>

<style type='text/css'>
<![CDATA[
[data-mouse-over-selected='false'] { opacity: 0.7; }
[data-mouse-over-selected='true']  { opacity: 1.0; }
]]>
</style>
<script type="application/ecmascript"><![CDATA[
document.addEventListener('DOMContentLoaded', (event) => {
  highlightEdges();
  highlightAdjacentNodes();
});
]]></script>
</svg>
